<mxfile host="app.diagrams.net" modified="2022-01-24T17:31:48.434Z" agent="5.0 (Macintosh; Intel Mac OS X 10_15_7) AppleWebKit/605.1.15 (KHTML, like Gecko) Version/15.2 Safari/605.1.15" etag="tAqHFhgMvxgsuSngDvrJ" version="16.4.5" type="github" pages="2">
  <diagram id="yduPr8pa8FwCuCBkXSA9" name="Page-1">
    <mxGraphModel dx="946" dy="645" grid="1" gridSize="10" guides="1" tooltips="1" connect="1" arrows="1" fold="1" page="1" pageScale="1" pageWidth="850" pageHeight="1100" math="0" shadow="0">
      <root>
        <mxCell id="0" />
        <mxCell id="1" parent="0" />
        <mxCell id="LsHG8OCSJ1Wb0Ce-m70j-1" value="" style="rounded=0;whiteSpace=wrap;html=1;rotation=45;fillColor=#dae8fc;strokeColor=#6c8ebf;" parent="1" vertex="1">
          <mxGeometry x="450" y="220" width="60" height="60" as="geometry" />
        </mxCell>
        <mxCell id="LsHG8OCSJ1Wb0Ce-m70j-2" value="Body" style="text;html=1;align=center;verticalAlign=middle;resizable=0;points=[];autosize=1;strokeColor=none;fillColor=none;" parent="1" vertex="1">
          <mxGeometry x="460" y="160" width="40" height="20" as="geometry" />
        </mxCell>
        <mxCell id="LsHG8OCSJ1Wb0Ce-m70j-3" value="Deeds" style="text;html=1;align=center;verticalAlign=middle;resizable=0;points=[];autosize=1;strokeColor=none;fillColor=none;" parent="1" vertex="1">
          <mxGeometry x="555" y="240" width="50" height="20" as="geometry" />
        </mxCell>
        <mxCell id="LsHG8OCSJ1Wb0Ce-m70j-4" value="Relationships" style="text;html=1;align=center;verticalAlign=middle;resizable=0;points=[];autosize=1;strokeColor=none;fillColor=none;" parent="1" vertex="1">
          <mxGeometry x="435" y="320" width="90" height="20" as="geometry" />
        </mxCell>
        <mxCell id="LsHG8OCSJ1Wb0Ce-m70j-5" value="Meanings" style="text;html=1;align=center;verticalAlign=middle;resizable=0;points=[];autosize=1;strokeColor=none;fillColor=none;" parent="1" vertex="1">
          <mxGeometry x="330" y="240" width="70" height="20" as="geometry" />
        </mxCell>
        <mxCell id="LsHG8OCSJ1Wb0Ce-m70j-6" value="30%" style="text;html=1;align=center;verticalAlign=middle;resizable=0;points=[];autosize=1;strokeColor=none;fillColor=none;" parent="1" vertex="1">
          <mxGeometry x="460" y="180" width="40" height="20" as="geometry" />
        </mxCell>
        <mxCell id="LsHG8OCSJ1Wb0Ce-m70j-7" value="30%" style="text;html=1;align=center;verticalAlign=middle;resizable=0;points=[];autosize=1;strokeColor=none;fillColor=none;" parent="1" vertex="1">
          <mxGeometry x="525" y="240" width="40" height="20" as="geometry" />
        </mxCell>
        <mxCell id="LsHG8OCSJ1Wb0Ce-m70j-8" value="15%" style="text;html=1;align=center;verticalAlign=middle;resizable=0;points=[];autosize=1;strokeColor=none;fillColor=none;" parent="1" vertex="1">
          <mxGeometry x="460" y="296" width="40" height="20" as="geometry" />
        </mxCell>
        <mxCell id="LsHG8OCSJ1Wb0Ce-m70j-9" value="25%" style="text;html=1;align=center;verticalAlign=middle;resizable=0;points=[];autosize=1;strokeColor=none;fillColor=none;" parent="1" vertex="1">
          <mxGeometry x="395" y="240" width="40" height="20" as="geometry" />
        </mxCell>
        <mxCell id="LsHG8OCSJ1Wb0Ce-m70j-10" value="&lt;div align=&quot;left&quot;&gt;Running&lt;/div&gt;&lt;div align=&quot;left&quot;&gt;Walking&lt;br&gt;&lt;/div&gt;&lt;div align=&quot;left&quot;&gt;Healthcare&lt;/div&gt;&lt;div align=&quot;left&quot;&gt;Morning training&lt;/div&gt;&lt;div align=&quot;left&quot;&gt;Diet&lt;/div&gt;&lt;div align=&quot;left&quot;&gt;Workouts&lt;/div&gt;&lt;div align=&quot;left&quot;&gt;&lt;br&gt;&lt;/div&gt;" style="text;html=1;align=left;verticalAlign=middle;resizable=0;points=[];autosize=1;strokeColor=none;fillColor=none;" parent="1" vertex="1">
          <mxGeometry x="525" y="105" width="100" height="100" as="geometry" />
        </mxCell>
        <mxCell id="LsHG8OCSJ1Wb0Ce-m70j-11" value="&lt;div&gt;Working on tasks&lt;/div&gt;&lt;div&gt;Learning professionally&lt;/div&gt;&lt;div&gt;Learning sex techniques&lt;/div&gt;&lt;div&gt;Mentoring&lt;/div&gt;&lt;div&gt;Teamwork&lt;/div&gt;&lt;div&gt;Studying English&lt;br&gt;&lt;/div&gt;" style="text;html=1;align=left;verticalAlign=middle;resizable=0;points=[];autosize=1;strokeColor=none;fillColor=none;" parent="1" vertex="1">
          <mxGeometry x="620" y="240" width="150" height="90" as="geometry" />
        </mxCell>
        <mxCell id="LsHG8OCSJ1Wb0Ce-m70j-12" value="&lt;div&gt;Visit relatives&lt;/div&gt;&lt;div&gt;My relationships&lt;/div&gt;&lt;div&gt;Co-friends&lt;/div&gt;&lt;div&gt;Rats&lt;/div&gt;&lt;div&gt;&lt;br&gt;&lt;/div&gt;" style="text;html=1;align=left;verticalAlign=middle;resizable=0;points=[];autosize=1;strokeColor=none;fillColor=none;" parent="1" vertex="1">
          <mxGeometry x="425" y="350" width="100" height="80" as="geometry" />
        </mxCell>
        <mxCell id="LsHG8OCSJ1Wb0Ce-m70j-13" value="&lt;div&gt;Setting goals&lt;/div&gt;&lt;div&gt;Planning&lt;/div&gt;&lt;div&gt;Coaching sessions&lt;br&gt;&lt;/div&gt;&lt;div&gt;Fantasy books&lt;/div&gt;&lt;div&gt;Educative books&lt;/div&gt;&lt;div&gt;Dreaming about future&lt;br&gt;&lt;/div&gt;&lt;div&gt;&lt;br&gt;&lt;/div&gt;" style="text;html=1;align=left;verticalAlign=middle;resizable=0;points=[];autosize=1;strokeColor=none;fillColor=none;" parent="1" vertex="1">
          <mxGeometry x="200.5" y="220" width="140" height="100" as="geometry" />
        </mxCell>
        <mxCell id="LsHG8OCSJ1Wb0Ce-m70j-15" value="" style="triangle;whiteSpace=wrap;html=1;rotation=-90;fillColor=#d5e8d4;strokeColor=#82b366;" parent="1" vertex="1">
          <mxGeometry x="510" y="107" width="7.5" height="10" as="geometry" />
        </mxCell>
        <mxCell id="LsHG8OCSJ1Wb0Ce-m70j-17" value="" style="triangle;whiteSpace=wrap;html=1;rotation=90;fillColor=#f8cecc;strokeColor=#b85450;" parent="1" vertex="1">
          <mxGeometry x="610" y="245" width="7.5" height="10" as="geometry" />
        </mxCell>
        <mxCell id="LsHG8OCSJ1Wb0Ce-m70j-18" value="" style="triangle;whiteSpace=wrap;html=1;rotation=-90;fillColor=#d5e8d4;strokeColor=#82b366;" parent="1" vertex="1">
          <mxGeometry x="510" y="122" width="7.5" height="10" as="geometry" />
        </mxCell>
        <mxCell id="LsHG8OCSJ1Wb0Ce-m70j-19" value="" style="triangle;whiteSpace=wrap;html=1;rotation=90;fillColor=#f8cecc;strokeColor=#b85450;" parent="1" vertex="1">
          <mxGeometry x="510" y="137" width="7.5" height="10" as="geometry" />
        </mxCell>
        <mxCell id="LsHG8OCSJ1Wb0Ce-m70j-20" value="" style="triangle;whiteSpace=wrap;html=1;rotation=-90;fillColor=#d5e8d4;strokeColor=#82b366;" parent="1" vertex="1">
          <mxGeometry x="510" y="151" width="7.5" height="10" as="geometry" />
        </mxCell>
        <mxCell id="LsHG8OCSJ1Wb0Ce-m70j-21" value="" style="triangle;whiteSpace=wrap;html=1;rotation=90;fillColor=#f8cecc;strokeColor=#b85450;" parent="1" vertex="1">
          <mxGeometry x="510" y="165" width="7.5" height="10" as="geometry" />
        </mxCell>
        <mxCell id="LsHG8OCSJ1Wb0Ce-m70j-22" value="" style="triangle;whiteSpace=wrap;html=1;rotation=90;fillColor=#f8cecc;strokeColor=#b85450;" parent="1" vertex="1">
          <mxGeometry x="510" y="179" width="7.5" height="10" as="geometry" />
        </mxCell>
        <mxCell id="LsHG8OCSJ1Wb0Ce-m70j-23" value="" style="triangle;whiteSpace=wrap;html=1;rotation=-90;fillColor=#d5e8d4;strokeColor=#82b366;" parent="1" vertex="1">
          <mxGeometry x="610" y="258" width="7.5" height="10" as="geometry" />
        </mxCell>
        <mxCell id="LsHG8OCSJ1Wb0Ce-m70j-24" value="" style="triangle;whiteSpace=wrap;html=1;rotation=-90;fillColor=#d5e8d4;strokeColor=#82b366;" parent="1" vertex="1">
          <mxGeometry x="610" y="286" width="7.5" height="10" as="geometry" />
        </mxCell>
        <mxCell id="LsHG8OCSJ1Wb0Ce-m70j-25" value="" style="triangle;whiteSpace=wrap;html=1;rotation=-90;fillColor=#d5e8d4;strokeColor=#82b366;" parent="1" vertex="1">
          <mxGeometry x="610" y="301" width="7.5" height="10" as="geometry" />
        </mxCell>
        <mxCell id="LsHG8OCSJ1Wb0Ce-m70j-26" value="" style="triangle;whiteSpace=wrap;html=1;rotation=-90;fillColor=#d5e8d4;strokeColor=#82b366;" parent="1" vertex="1">
          <mxGeometry x="610" y="316" width="7.5" height="10" as="geometry" />
        </mxCell>
        <mxCell id="LsHG8OCSJ1Wb0Ce-m70j-27" value="" style="triangle;whiteSpace=wrap;html=1;rotation=-90;fillColor=#d5e8d4;strokeColor=#82b366;" parent="1" vertex="1">
          <mxGeometry x="610" y="273" width="7.5" height="10" as="geometry" />
        </mxCell>
        <mxCell id="LsHG8OCSJ1Wb0Ce-m70j-28" value="" style="triangle;whiteSpace=wrap;html=1;rotation=-90;fillColor=#d5e8d4;strokeColor=#82b366;" parent="1" vertex="1">
          <mxGeometry x="412.25" y="357" width="7.5" height="10" as="geometry" />
        </mxCell>
        <mxCell id="LsHG8OCSJ1Wb0Ce-m70j-29" value="" style="triangle;whiteSpace=wrap;html=1;rotation=90;fillColor=#f8cecc;strokeColor=#b85450;" parent="1" vertex="1">
          <mxGeometry x="412.25" y="372" width="7.5" height="10" as="geometry" />
        </mxCell>
        <mxCell id="LsHG8OCSJ1Wb0Ce-m70j-30" value="" style="triangle;whiteSpace=wrap;html=1;rotation=-90;fillColor=#d5e8d4;strokeColor=#82b366;" parent="1" vertex="1">
          <mxGeometry x="412.25" y="385" width="7.5" height="10" as="geometry" />
        </mxCell>
        <mxCell id="LsHG8OCSJ1Wb0Ce-m70j-31" value="" style="triangle;whiteSpace=wrap;html=1;rotation=-90;fillColor=#d5e8d4;strokeColor=#82b366;" parent="1" vertex="1">
          <mxGeometry x="412.25" y="401" width="7.5" height="10" as="geometry" />
        </mxCell>
        <mxCell id="LsHG8OCSJ1Wb0Ce-m70j-32" value="" style="triangle;whiteSpace=wrap;html=1;rotation=-90;fillColor=#d5e8d4;strokeColor=#82b366;" parent="1" vertex="1">
          <mxGeometry x="190" y="221" width="7.5" height="10" as="geometry" />
        </mxCell>
        <mxCell id="LsHG8OCSJ1Wb0Ce-m70j-33" value="" style="triangle;whiteSpace=wrap;html=1;rotation=-90;fillColor=#d5e8d4;strokeColor=#82b366;" parent="1" vertex="1">
          <mxGeometry x="190" y="235" width="7.5" height="10" as="geometry" />
        </mxCell>
        <mxCell id="LsHG8OCSJ1Wb0Ce-m70j-34" value="" style="triangle;whiteSpace=wrap;html=1;rotation=-90;fillColor=#d5e8d4;strokeColor=#82b366;" parent="1" vertex="1">
          <mxGeometry x="190" y="250" width="7.5" height="10" as="geometry" />
        </mxCell>
        <mxCell id="LsHG8OCSJ1Wb0Ce-m70j-35" value="" style="triangle;whiteSpace=wrap;html=1;rotation=-90;fillColor=#d5e8d4;strokeColor=#82b366;" parent="1" vertex="1">
          <mxGeometry x="190" y="265" width="7.5" height="10" as="geometry" />
        </mxCell>
        <mxCell id="LsHG8OCSJ1Wb0Ce-m70j-36" value="" style="triangle;whiteSpace=wrap;html=1;rotation=-90;fillColor=#d5e8d4;strokeColor=#82b366;" parent="1" vertex="1">
          <mxGeometry x="190" y="280" width="7.5" height="10" as="geometry" />
        </mxCell>
        <mxCell id="LsHG8OCSJ1Wb0Ce-m70j-37" value="" style="triangle;whiteSpace=wrap;html=1;rotation=-90;fillColor=#d5e8d4;strokeColor=#82b366;" parent="1" vertex="1">
          <mxGeometry x="190" y="294" width="7.5" height="10" as="geometry" />
        </mxCell>
      </root>
    </mxGraphModel>
  </diagram>
  <diagram id="uWvt3aBSU1Cc-b23yneA" name="Stresses list">
    <mxGraphModel dx="450" dy="307" grid="1" gridSize="10" guides="1" tooltips="1" connect="1" arrows="1" fold="1" page="1" pageScale="1" pageWidth="850" pageHeight="1100" math="0" shadow="0">
      <root>
        <mxCell id="kgkSi-Ow5r1XPtCMf1H--0" />
        <mxCell id="kgkSi-Ow5r1XPtCMf1H--1" parent="kgkSi-Ow5r1XPtCMf1H--0" />
        <mxCell id="jISX1rP1i54Ro4F3DHy1-0" value="&lt;div style=&quot;text-align: left&quot;&gt;Not finished task&lt;/div&gt;&lt;div style=&quot;text-align: left&quot;&gt;Home argument&lt;/div&gt;&lt;div style=&quot;text-align: left&quot;&gt;Didn&#39;t work enough&lt;/div&gt;&lt;div style=&quot;text-align: left&quot;&gt;DIdn&#39;t do something useful&lt;/div&gt;&lt;div style=&quot;text-align: left&quot;&gt;Borring task&lt;/div&gt;" style="text;html=1;align=center;verticalAlign=middle;resizable=0;points=[];autosize=1;strokeColor=none;fillColor=none;" vertex="1" parent="kgkSi-Ow5r1XPtCMf1H--1">
          <mxGeometry x="240" y="540" width="160" height="80" as="geometry" />
        </mxCell>
        <mxCell id="jISX1rP1i54Ro4F3DHy1-1" value="&lt;div style=&quot;text-align: left&quot;&gt;10&lt;/div&gt;&lt;div style=&quot;text-align: left&quot;&gt;15&lt;/div&gt;&lt;div style=&quot;text-align: left&quot;&gt;5&lt;/div&gt;&lt;div style=&quot;text-align: left&quot;&gt;2&lt;/div&gt;&lt;div style=&quot;text-align: left&quot;&gt;3&lt;/div&gt;" style="text;html=1;align=center;verticalAlign=middle;resizable=0;points=[];autosize=1;strokeColor=none;fillColor=none;" vertex="1" parent="kgkSi-Ow5r1XPtCMf1H--1">
          <mxGeometry x="410" y="540" width="30" height="80" as="geometry" />
        </mxCell>
        <mxCell id="jISX1rP1i54Ro4F3DHy1-2" value="&lt;div style=&quot;text-align: left&quot;&gt;10/month&lt;/div&gt;&lt;div style=&quot;text-align: left&quot;&gt;1/month&lt;/div&gt;&lt;div style=&quot;text-align: left&quot;&gt;2/day&lt;/div&gt;&lt;div style=&quot;text-align: left&quot;&gt;2/day&lt;/div&gt;&lt;div style=&quot;text-align: left&quot;&gt;5/month&lt;/div&gt;" style="text;html=1;align=center;verticalAlign=middle;resizable=0;points=[];autosize=1;strokeColor=none;fillColor=none;" vertex="1" parent="kgkSi-Ow5r1XPtCMf1H--1">
          <mxGeometry x="440" y="540" width="70" height="80" as="geometry" />
        </mxCell>
        <mxCell id="jISX1rP1i54Ro4F3DHy1-3" value="&lt;div style=&quot;text-align: left&quot;&gt;1200/year&lt;/div&gt;&lt;div style=&quot;text-align: left&quot;&gt;180/year&lt;/div&gt;&lt;div style=&quot;text-align: left&quot;&gt;3600/year&lt;/div&gt;&lt;div style=&quot;text-align: left&quot;&gt;1440/year&lt;/div&gt;&lt;div style=&quot;text-align: left&quot;&gt;180/year&lt;/div&gt;" style="text;html=1;align=center;verticalAlign=middle;resizable=0;points=[];autosize=1;strokeColor=none;fillColor=none;" vertex="1" parent="kgkSi-Ow5r1XPtCMf1H--1">
          <mxGeometry x="510" y="540" width="70" height="80" as="geometry" />
        </mxCell>
        <mxCell id="jISX1rP1i54Ro4F3DHy1-4" value="&lt;div style=&quot;text-align: left&quot;&gt;work&lt;/div&gt;&lt;div style=&quot;text-align: left&quot;&gt;relationships&lt;/div&gt;&lt;div style=&quot;text-align: left&quot;&gt;work&lt;/div&gt;&lt;div style=&quot;text-align: left&quot;&gt;organisation&lt;/div&gt;&lt;div style=&quot;text-align: left&quot;&gt;work&lt;/div&gt;" style="text;html=1;align=center;verticalAlign=middle;resizable=0;points=[];autosize=1;strokeColor=none;fillColor=none;" vertex="1" parent="kgkSi-Ow5r1XPtCMf1H--1">
          <mxGeometry x="590" y="540" width="80" height="80" as="geometry" />
        </mxCell>
      </root>
    </mxGraphModel>
  </diagram>
</mxfile>
